<svg xmlns="http://www.w3.org/2000/svg" width="1280" height="640" viewBox="0 0 1280 640"><rect width="1280" height="640" rx="34" fill="#eaf4f2"/><rect x="36" y="40" width="1208" height="560" rx="22" fill="#fff" stroke="#cde1dc"/><rect x="36" y="40" width="1208" height="50" rx="22" fill="#f7faf9"/><text x="68" y="72" font-family="Arial" font-size="16" font-weight="700" fill="#17343e">SciNest · Scientific figure editor</text><rect x="36" y="90" width="220" height="510" fill="#f5f9f7"/><text x="64" y="132" font-family="Arial" font-size="14" font-weight="700" fill="#0a7569">Layers</text><g font-family="Arial" font-size="12"><rect x="60" y="154" width="172" height="42" rx="10" fill="#e8f6f2"/><text x="80" y="180" fill="#0a7569">✓ Main structure</text><rect x="60" y="206" width="172" height="42" rx="10" fill="#fff"/><text x="80" y="232" fill="#4e6670">✓ Mechanism path</text><rect x="60" y="258" width="172" height="42" rx="10" fill="#fff"/><text x="80" y="284" fill="#4e6670">✓ Methods</text><rect x="60" y="310" width="172" height="42" rx="10" fill="#fff"/><text x="80" y="336" fill="#4e6670">✓ Labels</text></g><rect x="256" y="90" width="988" height="510" fill="#edf5f8"/><rect x="290" y="116" width="920" height="56" rx="14" fill="#fff"/><g font-family="Arial" font-size="13" font-weight="700"><rect x="314" y="128" width="102" height="32" rx="9" fill="#e7f6f2"/><text x="336" y="149" fill="#0a7569">Edit text</text><rect x="428" y="128" width="88" height="32" rx="9" fill="#e7f6f2"/><text x="448" y="149" fill="#0a7569">AI refine</text><rect x="528" y="128" width="88" height="32" rx="9" fill="#fff" stroke="#cde1dc"/><text x="548" y="149" fill="#3e5963">Layers</text></g><rect x="316" y="196" width="868" height="364" rx="18" fill="#fff"/><circle cx="744" cy="372" r="92" fill="#d9efea" stroke="#82c9bd" stroke-width="3"/><circle cx="744" cy="372" r="48" fill="#73bdb0"/><text x="700" y="379" font-family="Arial" font-size="16" font-weight="700" fill="#fff">Core subject</text><g fill="#edf7f5" stroke="#77bdb2" stroke-width="2"><rect x="396" y="232" width="176" height="92" rx="18"/><rect x="396" y="420" width="176" height="92" rx="18"/><rect x="922" y="232" width="176" height="92" rx="18"/><rect x="922" y="420" width="176" height="92" rx="18"/></g><g font-family="Arial" font-size="15" font-weight="700" fill="#17343e"><text x="446" y="284">Mechanism A</text><text x="446" y="472">Evidence B</text><text x="972" y="284">Method C</text><text x="972" y="472">Outcome D</text></g><g stroke="#3b9185" stroke-width="4" fill="none" marker-end="url(#a)"><defs><marker id="a" markerWidth="8" markerHeight="8" refX="6" refY="3" orient="auto"><path d="M0,0 L0,6 L6,3 z" fill="#3b9185"/></marker></defs><path d="M572 278 C640 278 648 328 682 350"/><path d="M572 466 C640 466 650 418 682 394"/><path d="M806 350 C846 326 860 278 922 278"/><path d="M806 394 C846 420 860 466 922 466"/></g><rect x="676" y="300" width="136" height="144" rx="12" fill="none" stroke="#1e8fff" stroke-width="3" stroke-dasharray="8 6"/><circle cx="676" cy="300" r="6" fill="#1e8fff"/><circle cx="812" cy="444" r="6" fill="#1e8fff"/></svg>