<svg xmlns="http://www.w3.org/2000/svg" width="1280" height="800" viewBox="0 0 1280 800"><rect width="1280" height="800" rx="36" fill="#eef7f4"/><rect x="50" y="54" width="1180" height="692" rx="22" fill="#fff" stroke="#cfe4df"/><rect x="50" y="54" width="1180" height="52" rx="22" fill="#f7faf9"/><text x="82" y="87" font-family="Arial" font-size="16" font-weight="700" fill="#17343e">SciNest · PPT 生成与编辑</text><rect x="50" y="106" width="252" height="640" fill="#f5f9f7"/><text x="78" y="146" font-family="Arial" font-size="14" font-weight="700" fill="#0a7569">项目资料</text><g font-family="Arial" font-size="12"><rect x="76" y="168" width="200" height="44" rx="11" fill="#fff" stroke="#d3e6e1"/><text x="94" y="195" fill="#3f5861">✓ 研究文稿</text><rect x="76" y="224" width="200" height="44" rx="11" fill="#fff" stroke="#d3e6e1"/><text x="94" y="251" fill="#3f5861">✓ 科研图</text><rect x="76" y="280" width="200" height="44" rx="11" fill="#fff" stroke="#d3e6e1"/><text x="94" y="307" fill="#3f5861">✓ 参考文献</text></g><rect x="302" y="106" width="928" height="640" fill="#edf1f0"/><rect x="330" y="128" width="872" height="56" rx="13" fill="#fff"/><text x="358" y="162" font-family="Arial" font-size="14" font-weight="700" fill="#17343e">开题汇报 · 12 页 · 中文 · 学术正式</text><rect x="330" y="204" width="190" height="514" rx="14" fill="#f8fbfa"/><text x="354" y="238" font-family="Arial" font-size="13" font-weight="700" fill="#0a7569">幻灯片结构</text><g fill="#fff" stroke="#cadfda"><rect x="352" y="258" width="146" height="82" rx="10"/><rect x="352" y="354" width="146" height="82" rx="10"/><rect x="352" y="450" width="146" height="82" rx="10"/><rect x="352" y="546" width="146" height="82" rx="10"/></g><g stroke="#8ba1a7" stroke-width="5" stroke-linecap="round"><path d="M370 278h106"/><path d="M370 294h84"/><path d="M370 374h106"/><path d="M370 390h76"/><path d="M370 470h106"/><path d="M370 486h90"/><path d="M370 566h106"/><path d="M370 582h82"/></g><rect x="544" y="204" width="658" height="514" rx="16" fill="#fff"/><rect x="580" y="242" width="586" height="438" rx="8" fill="#f7fbfa" stroke="#d3e5e1"/><text x="626" y="310" font-family="Arial" font-size="27" font-weight="700" fill="#17343e">研究背景与核心问题</text><g stroke="#92a6ab" stroke-width="8" stroke-linecap="round"><path d="M626 350h364"/><path d="M626 382h326"/><path d="M626 414h344"/></g><rect x="626" y="470" width="206" height="130" rx="16" fill="#dff2ed"/><circle cx="728" cy="535" r="38" fill="#6eb8aa"/><rect x="864" y="470" width="254" height="130" rx="16" fill="#edf7f4"/><g stroke="#5b9d92" stroke-width="4"><path d="M894 548h194"/><path d="M920 520l34 28 42-44 54 44" fill="none"/></g><rect x="1000" y="644" width="142" height="36" rx="10" fill="#e7f6f2"/><text x="1028" y="667" font-family="Arial" font-size="12" font-weight="700" fill="#0a7569">继续编辑页面</text></svg>